<svg width="25" height="25" viewBox="0 0 25 25" fill="none" xmlns="http://www.w3.org/2000/svg">
<path d="M17 16.8163C15.6474 17.5449 14.1186 18.0603 12.5 18.0603C6.97715 18.0603 2.5 12.0603 2.5 12.0603C2.5 12.0603 4.58842 9.26154 7.67205 7.487M20 14.694C21.5559 13.3255 22.5 12.0603 22.5 12.0603C22.5 12.0603 18.0228 6.0603 12.5 6.0603C12.1625 6.0603 11.8289 6.08271 11.5 6.12478" stroke="#232323" stroke-width="2" stroke-linecap="round" stroke-linejoin="round"/>
<path d="M13.8229 13.5603C13.4703 13.8714 13.0072 14.0603 12.5 14.0603C11.3954 14.0603 10.5 13.1648 10.5 12.0603C10.5 11.5207 10.7136 11.0311 11.0609 10.6714" stroke="#232323" stroke-width="2" stroke-linecap="round" stroke-linejoin="round"/>
</svg>
